<svg width="50" height="50" viewBox="0 0 50 50" fill="none" xmlns="http://www.w3.org/2000/svg">
<path d="M39.25 16.667H10.75C8.87513 16.667 7.9377 16.667 7.28054 17.1444C7.0683 17.2986 6.88166 17.4853 6.72746 17.6975C6.25 18.3547 6.25 19.2921 6.25 21.167V39.2503C6.25 41.1252 6.25 42.0626 6.72746 42.7198C6.88166 42.932 7.0683 43.1187 7.28054 43.2729C7.9377 43.7503 8.87513 43.7503 10.75 43.7503H39.25C41.1249 43.7503 42.0623 43.7503 42.7195 43.2729C42.9317 43.1187 43.1183 42.932 43.2725 42.7198C43.75 42.0626 43.75 41.1252 43.75 39.2503V21.167C43.75 19.2921 43.75 18.3547 43.2725 17.6975C43.1183 17.4853 42.9317 17.2986 42.7195 17.1444C42.0623 16.667 41.1249 16.667 39.25 16.667Z" fill="#E2DFCF" fill-opacity="0.18"/>
<path d="M33.3333 16.6667V13.45C33.3333 10.4502 33.3333 8.95032 32.5694 7.89886C32.3227 7.55928 32.0241 7.26065 31.6845 7.01393C30.633 6.25 29.1331 6.25 26.1333 6.25H23.8667C20.8669 6.25 19.367 6.25 18.3155 7.01393C17.9759 7.26065 17.6773 7.55928 17.4306 7.89886C16.6667 8.95032 16.6667 10.4502 16.6667 13.45V16.6667M31.25 30.2083H24.9993M24.9993 30.2083H18.75M24.9993 30.2083L25 36.4583M24.9993 30.2083L25 23.9583M10.75 43.75H39.25C41.1249 43.75 42.0623 43.75 42.7195 43.2725C42.9317 43.1183 43.1183 42.9317 43.2725 42.7195C43.75 42.0623 43.75 41.1249 43.75 39.25V21.1667C43.75 19.2918 43.75 18.3544 43.2725 17.6972C43.1183 17.485 42.9317 17.2983 42.7195 17.1441C42.0623 16.6667 41.1249 16.6667 39.25 16.6667H10.75C8.87513 16.6667 7.9377 16.6667 7.28054 17.1441C7.0683 17.2983 6.88166 17.485 6.72746 17.6972C6.25 18.3544 6.25 19.2918 6.25 21.1667V39.25C6.25 41.1249 6.25 42.0623 6.72746 42.7195C6.88166 42.9317 7.0683 43.1183 7.28054 43.2725C7.9377 43.75 8.87513 43.75 10.75 43.75Z" stroke="#503217" stroke-width="2.5" stroke-linecap="round" stroke-linejoin="round"/>
</svg>
