<svg width="50" height="50" viewBox="0 0 50 50" fill="none" xmlns="http://www.w3.org/2000/svg">
<path d="M6.25 25C6.25 18.0964 11.8464 12.5 18.75 12.5H25H31.25C38.1536 12.5 43.75 18.0964 43.75 25C43.75 31.9036 38.1536 37.5 31.25 37.5H25H18.75C11.8464 37.5 6.25 31.9036 6.25 25Z" fill="#E2DFCF" fill-opacity="0.18"/>
<path d="M25 12.5H18.75C11.8464 12.5 6.25 18.0964 6.25 25C6.25 31.9036 11.8464 37.5 18.75 37.5H25M25 12.5H31.25C38.1536 12.5 43.75 18.0964 43.75 25C43.75 31.9036 38.1536 37.5 31.25 37.5H25M25 12.5V37.5" stroke="#503217" stroke-width="2.5" stroke-linejoin="round"/>
</svg>
