<svg width="50" height="50" viewBox="0 0 50 50" fill="none" xmlns="http://www.w3.org/2000/svg">
<path d="M43.5292 19.6775C41.3487 32.2408 24.9894 42.7087 24.9894 42.7087C24.9894 42.7087 8.50964 32.2405 6.44963 19.6782C4.38963 7.11584 18.8095 2.9279 24.9894 12.6659C31.1695 2.92773 45.7097 7.11414 43.5292 19.6775Z" fill="#E2DFCF" fill-opacity="0.18"/>
<path d="M6.25094 30.2114H10.533C10.9357 30.2114 11.1371 30.2114 11.3158 30.1399C11.3747 30.1164 11.4312 30.0873 11.4846 30.0531C11.6465 29.9492 11.7636 29.7853 11.9977 29.4576L15.3318 24.7898C15.8746 24.0299 16.146 23.65 16.5157 23.5652C16.6338 23.5381 16.7559 23.5327 16.8759 23.5492C17.2516 23.6011 17.5555 23.9556 18.1632 24.6646L21.3713 28.4073C21.9972 29.1376 22.3102 29.5027 22.6939 29.5506C22.8163 29.5659 22.9405 29.5584 23.0602 29.5285C23.4353 29.4348 23.7021 29.0346 24.2356 28.2343L29.6514 20.1106C30.2839 19.1619 30.6002 18.6875 31.0226 18.6139C31.1561 18.5906 31.2929 18.5947 31.4248 18.6259C31.8421 18.7247 32.1293 19.2172 32.7039 20.2021L38.0217 29.3183C38.2471 29.7048 38.3598 29.898 38.5314 30.0219C38.5878 30.0627 38.6483 30.0974 38.7119 30.1256C38.9054 30.2114 39.1291 30.2114 39.5765 30.2114H43.7509M43.5292 19.6775C41.3487 32.2408 24.9894 42.7087 24.9894 42.7087C24.9894 42.7087 8.50964 32.2405 6.44963 19.6782C4.38963 7.11584 18.8095 2.9279 24.9894 12.6659C31.1695 2.92773 45.7097 7.11414 43.5292 19.6775Z" stroke="#503217" stroke-width="2.5" stroke-linecap="round" stroke-linejoin="round"/>
</svg>
