<svg width="265" height="212" viewBox="0 0 265 212" fill="none" xmlns="http://www.w3.org/2000/svg">
<path d="M261.424 71.4632C255.545 60.421 242.849 54.4018 230.237 56.6761L227.784 49.8034C221.015 30.841 200.59 20.3056 182.259 26.3335C164.458 32.1876 154.897 52.0592 160.93 70.6383L161.157 70.5637L160.943 70.676L187.54 145.176C196.042 168.993 184.526 194.39 161.881 201.836C139.237 209.284 113.902 195.973 105.41 172.183L103.106 165.731C108.777 163.866 113.42 157.9 109.44 146.752L106.046 137.244C128.932 122.786 139.415 96.059 130.983 72.4391L128.169 64.557L120.347 67.1291L102.618 17.9814C99.3098 8.89262 89.7726 3.33952 79.9218 4.76727C75.8075 -0.497656 68.0645 -1.56514 62.6273 2.38343C57.1904 6.33136 56.118 13.8002 60.2329 19.0653C64.3473 24.3301 72.0902 25.3977 77.5275 21.449C80.4388 19.3349 82.2254 16.0813 82.4077 12.5628C87.91 12.2932 92.9539 15.5578 94.7922 20.58L112.525 69.7013L104.703 72.2734L107.556 80.2652C111.938 93.5173 106.897 107.944 95.1135 115.873C88.8816 120.321 81.3676 122.792 73.6031 122.947C59.2392 123.602 46.0606 115.169 41.0692 102.128L38.2163 94.1366L26.4834 97.9948L8.93888 48.8497C7.13717 43.7327 9.09842 38.099 13.729 35.0919C18.2003 40.1665 26.0711 40.7992 31.3092 36.5058C36.5475 32.2122 37.1686 24.6179 32.6974 19.5438C28.2263 14.4697 20.3548 13.8368 15.117 18.1301C12.279 20.4567 10.6746 23.8922 10.7456 27.4937C1.92508 32.1241 -2.13855 42.2217 1.11694 51.4219L18.6614 100.567L10.8395 103.139L13.6465 111.002C22.0882 134.649 47.4601 149.594 74.7583 147.532L78.1526 157.039C82.1325 168.189 89.6129 170.168 95.2838 168.302L97.5876 174.755C107.574 202.731 137.622 218.263 164.58 209.398C191.538 200.532 205.339 170.553 195.361 142.604L168.831 68.2855C164.1 53.8102 171.345 38.3837 184.963 33.9055C198.98 29.2962 214.682 37.5829 219.966 52.3869L222.416 59.2483C208.196 66.2569 202.606 83.0893 209.93 96.8443C217.255 110.599 234.718 116.068 248.937 109.059C263.157 102.05 268.747 85.2177 261.424 71.4632ZM71.3767 15.6454C69.2168 16.3556 66.8614 15.2388 66.1161 13.1511C65.3708 11.0633 66.5176 8.7948 68.6775 8.08459C70.8374 7.37422 73.1928 8.49117 73.9381 10.5789C74.6833 12.6667 73.5365 14.9352 71.3767 15.6454ZM21.7458 23.5174C23.9057 22.8071 26.2611 23.924 27.0064 26.0117C27.7517 28.0995 26.6049 30.368 24.445 31.0782C22.2851 31.7884 19.9297 30.6716 19.1845 28.5839C18.4392 26.4961 19.586 24.2276 21.7458 23.5174ZM21.4684 108.43L21.3606 108.127L33.0935 104.269L33.2473 104.7C39.4063 121.036 55.8345 131.656 73.8 130.916C83.283 130.722 92.459 127.705 100.074 122.277C114.747 112.29 120.947 94.228 115.378 77.6931L115.224 77.262L123.046 74.6899L123.154 74.9924C130.662 96.0228 120.498 120.042 98.9737 132.122C93.9195 134.957 88.4521 137.05 82.7527 138.33C80.8782 138.756 78.9811 139.086 77.0695 139.316C52.3526 142.45 28.9761 129.461 21.4684 108.43ZM92.5846 160.743C89.0648 161.899 86.7843 156.735 85.9745 154.467L83.1106 146.446C83.4371 146.381 83.7633 146.289 84.0908 146.216C84.4968 146.129 84.8987 146.031 85.3019 145.935C87.2084 145.486 89.1117 144.978 90.9943 144.364L91.1899 144.299C93.0672 143.682 94.8895 142.961 96.6711 142.197C97.05 142.035 97.4538 141.869 97.8417 141.694C98.1385 141.559 98.4552 141.442 98.7507 141.302L101.614 149.325C102.424 151.593 103.923 157.014 100.403 158.171L92.5846 160.743ZM242.414 103.024C231.614 106.576 219.838 100.992 216.111 90.5528C212.384 80.1137 218.118 68.7719 228.919 65.2206C239.717 61.6692 251.493 67.253 255.22 77.6921C258.932 88.1306 253.203 99.4627 242.414 103.024Z" fill="#8F7D6A"/>
</svg>
