<svg width="50" height="50" viewBox="0 0 50 50" fill="none" xmlns="http://www.w3.org/2000/svg">
<path d="M19.791 25H24.9993H30.2077V38.5417C30.2077 41.4181 27.8758 43.75 24.9993 43.75C22.1229 43.75 19.791 41.4181 19.791 38.5417V25Z" fill="#E2DFCF" fill-opacity="0.18"/>
<path d="M19.7923 25H30.209M19.7923 25V38.5417C19.7923 41.4181 22.1242 43.75 25.0007 43.75C27.8771 43.75 30.209 41.4181 30.209 38.5417V25M19.7923 25V12.5208M30.209 25V12.5208M20.834 12.5H29.1673C30.8932 12.5 32.2923 11.1009 32.2923 9.375C32.2923 7.64911 30.8932 6.25 29.1673 6.25H20.834C19.1081 6.25 17.709 7.64911 17.709 9.375C17.709 11.1009 19.1081 12.5 20.834 12.5Z" stroke="#503217" stroke-width="2.5" stroke-linejoin="round"/>
</svg>
